<svg xmlns="http://www.w3.org/2000/svg" width="299" height="300" viewBox="0 0 299 300">
    <defs>
        <linearGradient id="bjlffc0xla" x1="50.56%" x2="49.365%" y1="48.046%" y2="51.932%">
            <stop offset="1%"/>
            <stop offset="13%" stop-opacity=".69"/>
            <stop offset="100%" stop-opacity="0"/>
        </linearGradient>
        <linearGradient id="20otytl3kb" x1="65.971%" x2="56.298%" y1="83.187%" y2="61.616%">
            <stop offset="0%"/>
            <stop offset="13%" stop-opacity=".69"/>
            <stop offset="100%" stop-opacity="0"/>
        </linearGradient>
        <linearGradient id="if0rj45rsc" x1="73.765%" x2="31.781%" y1="11.821%" y2="92.523%">
            <stop offset="1%"/>
            <stop offset="13%" stop-opacity=".69"/>
            <stop offset="100%" stop-opacity="0"/>
        </linearGradient>
        <linearGradient id="58a6r1f9ld" x1="-.024%" x2="99.996%" y1="49.949%" y2="49.949%">
            <stop offset="1%"/>
            <stop offset="13%" stop-opacity=".69"/>
            <stop offset="100%" stop-opacity="0"/>
        </linearGradient>
        <linearGradient id="oblz42xkme" x1="40.522%" x2="85.001%" y1="35.292%" y2="111.155%">
            <stop offset="1%"/>
            <stop offset="13%" stop-opacity=".69"/>
            <stop offset="100%" stop-opacity="0"/>
        </linearGradient>
        <linearGradient id="40cp4cxhkf" x1="67.855%" x2="28.507%" y1="53.394%" y2="46.015%">
            <stop offset="1%"/>
            <stop offset="13%" stop-opacity=".69"/>
            <stop offset="100%" stop-opacity="0"/>
        </linearGradient>
        <linearGradient id="4ns5kcp1pg" x1="-.017%" x2="100.034%" y1="49.819%" y2="49.819%">
            <stop offset="1%"/>
            <stop offset="13%" stop-opacity=".69"/>
            <stop offset="100%" stop-opacity="0"/>
        </linearGradient>
        <linearGradient id="c51mix8zbh" x1="0%" x2="100%" y1="50.126%" y2="50.126%">
            <stop offset="1%"/>
            <stop offset="13%" stop-opacity=".69"/>
            <stop offset="100%" stop-opacity="0"/>
        </linearGradient>
        <linearGradient id="457sea0yri" x1="66.966%" x2="47.509%" y1="97.65%" y2="52.869%">
            <stop offset="0%"/>
            <stop offset="13%" stop-opacity=".69"/>
            <stop offset="100%" stop-opacity="0"/>
        </linearGradient>
        <linearGradient id="e0gk7qy0xj" x1="0%" x2="100%" y1="23.507%" y2="76.493%">
            <stop offset="0%" stop-color="#7DDCB7"/>
            <stop offset="100%" stop-color="#008BCE"/>
        </linearGradient>
    </defs>
    <g fill="none" fill-rule="evenodd">
        <g fill-rule="nonzero">
            <g>
                <path fill="#FFF" d="M291.272 143.969c-4.85 22.28-9.702 44.544-14.557 66.793-1.896 8.697-3.808 17.448-7.22 25.647-2.476 5.946-5.735 11.535-9.692 16.617-11.977 15.45-29.984 26.285-49.391 28.927-12.373 1.687-25.018.265-37.368 2.107-15.59 2.331-29.984 9.73-45.38 13.095-21.98 4.811-45.25 1.112-66.063-7.468-16.391-6.754-44.44-18.894-55.376-36.646-2.164-3.402-3.62-7.206-4.282-11.183-5.44-35.052 1.298-78.063 12.902-111.234C37.383 66.117 96.132 15.645 163.29 3.008c25.47-4.788 52.407-4.353 76.593 4.95 24.187 9.304 45.272 28.159 53.907 52.594 9.412 26.588 3.49 55.857-2.518 83.417z" transform="translate(-47 -3342) translate(47 3342)"/>
                <path fill="#F2C75C" d="M291.272 143.969c-4.85 22.28-9.702 44.544-14.557 66.793-1.896 8.697-3.808 17.448-7.22 25.647-2.476 5.946-5.735 11.535-9.692 16.617-11.977 15.45-29.984 26.285-49.391 28.927-12.373 1.687-25.018.265-37.368 2.107-15.59 2.331-29.984 9.73-45.38 13.095-21.98 4.811-45.25 1.112-66.063-7.468-16.391-6.754-44.44-18.894-55.376-36.646-2.164-3.402-3.62-7.206-4.282-11.183-5.44-35.052 1.298-78.063 12.902-111.234C37.383 66.117 96.132 15.645 163.29 3.008c25.47-4.788 52.407-4.353 76.593 4.95 24.187 9.304 45.272 28.159 53.907 52.594 9.412 26.588 3.49 55.857-2.518 83.417z" opacity=".18" transform="translate(-47 -3342) translate(47 3342)"/>
                <path fill="#F2C75C" d="M259.803 253.041c-11.977 15.451-29.984 26.285-49.391 28.928-12.373 1.686-25.018.264-37.368 2.106-15.59 2.332-29.984 9.73-45.38 13.096-21.98 4.81-45.25 1.111-66.063-7.469-16.391-6.77-44.44-18.91-55.376-36.66h253.578z" transform="translate(-47 -3342) translate(47 3342)"/>
                <path fill="url(#bjlffc0xla)" d="M147.715 257.541c-25.026-5.797-51.124-3.42-76.694-1.018-2.332.218-4.749.467-6.739 1.695-1.99 1.228-3.38 3.769-2.533 5.953.777 1.92 2.844 2.899 4.803 3.552 12.435 4.204 25.927 3.202 39.039 2.603 42.482-1.927 85.492.933 127.142-7.842 4.244-.893 8.783-2.098 11.51-5.44-7.81-3.971-17.23-2.883-25.647-.474-8.417 2.41-16.562 6.07-25.267 7.034-4.889.536-6.528-4.594-10.578-6.451-3.109-1.43-5.137-1.073-8.324-.109-9.878 2.969-16.492 2.868-26.712.497z" transform="translate(-47 -3342) translate(47 3342)"/>
                <path fill="#2E2E3F" d="M117.124 253.127c-2.43-.014-4.655-1.363-5.792-3.51-1.137-2.148-1.002-4.747.352-6.765 1.756-2.617 5.117-3.627 8.024-2.411 2.908 1.215 4.55 4.317 3.921 7.405-.629 3.087-3.353 5.3-6.505 5.281zm-2.246-8.106c-.833 1.243-.502 2.927.74 3.762 1.243.835 2.927.505 3.763-.737.836-1.242.508-2.927-.733-3.764-1.246-.834-2.931-.504-3.77.739zM68.775 253.127c-2.433-.01-4.662-1.357-5.8-3.507-1.139-2.15-1-4.75.36-6.768 1.755-2.617 5.116-3.627 8.023-2.411 2.908 1.215 4.55 4.317 3.921 7.405-.629 3.087-3.353 5.3-6.504 5.281zm-2.239-8.106c-.612.91-.616 2.1-.009 3.014.607.915 1.705 1.373 2.782 1.162 1.077-.212 1.92-1.051 2.137-2.127.216-1.076-.237-2.176-1.148-2.788-1.243-.833-2.926-.503-3.762.739z" transform="translate(-47 -3342) translate(47 3342)"/>
                <path fill="#FE5C36" d="M171.062 116.137c-.234.768-.577 1.498-1.018 2.169-.871 1.036-1.973 1.853-3.218 2.386-4.927 2.526-12.435 5.246-16.616 8.899-.508.403-.928.906-1.236 1.476-.598 1.298 0 2.798.552 4.104.248.739.688 1.399 1.275 1.912 1.064.777 2.541.443 3.808.07 4.859-1.449 9.637-3.153 14.316-5.106 2.617-1.056 5.16-2.29 7.609-3.692.982-.505 1.835-1.228 2.494-2.114.463-.798.772-1.676.91-2.588.884-4.71 1.479-9.47 1.78-14.254l.932-11.223c.187-2.16 6.762-9.723 4.78-11.207-3.886-2.907-9.536 5.005-10.422 6.63-2.503 4.577-4.974 19.771-5.946 22.538z" transform="translate(-47 -3342) translate(47 3342)"/>
                <path fill="url(#20otytl3kb)" d="M171.062 116.137c-.234.768-.577 1.498-1.018 2.169-.871 1.036-1.973 1.853-3.218 2.386-4.927 2.526-12.435 5.246-16.616 8.899-.508.403-.928.906-1.236 1.476-.598 1.298 0 2.798.552 4.104.248.739.688 1.399 1.275 1.912 1.064.777 2.541.443 3.808.07 4.859-1.449 9.637-3.153 14.316-5.106 2.617-1.056 5.16-2.29 7.609-3.692.982-.505 1.835-1.228 2.494-2.114.463-.798.772-1.676.91-2.588.884-4.71 1.479-9.47 1.78-14.254l.932-11.223c.187-2.16 6.762-9.723 4.78-11.207-3.886-2.907-9.536 5.005-10.422 6.63-2.503 4.577-4.974 19.771-5.946 22.538z" transform="translate(-47 -3342) translate(47 3342)"/>
                <path fill="#F3BD8F" d="M231.42 237.692c.628 1.003.954 2.166.94 3.35-.148.899-.674 1.691-1.445 2.177s-1.713.618-2.589.364c-.704-.291-1.343-.72-1.88-1.26-6.506-5.782-11.658-12.908-16.322-20.292-1.259-2.005-2.479-4.034-3.551-6.14-3.624-7.137-5.527-15.024-5.557-23.028-.05-.46.063-.921.318-1.306.268-.271.612-.453.987-.52 3.218-.902 8.23-.988 11.075 1.11 3.195 2.332 2.425 9.677 2.285 13.019-.162 1.426-.02 2.87.42 4.236.582 1.169 1.373 2.222 2.332 3.108 6.52 7.003 8.782 16.71 12.987 25.182z" transform="translate(-47 -3342) translate(47 3342)"/>
                <path fill="#F5BD8D" d="M191.083 221.751c.674 9.08-.525 18.2-3.52 26.798-.183.778-.601 1.481-1.198 2.013-.822.506-1.852.53-2.697.062-2.106-1.026-2.844-3.264-3.202-5.44-1.563-9.603-2.307-19.322-2.222-29.052 0-4.593.132-8.969-.226-13.539-.357-4.702-.886-9.396-.886-14.121-.087-.469.001-.953.249-1.36.396-.365.935-.533 1.469-.46 3.373 0 9.528-1.942 12.155.203 3.459 2.821-2.075 15.225-2.627 18.816-.925 5.992 1.679 7.772 2.448 13.687.101.839.187 1.616.257 2.393z" transform="translate(-47 -3342) translate(47 3342)"/>
                <path fill="#2E2E3F" d="M174.101 188.526c-.08.91.148 1.821.645 2.588.518.534 1.179.907 1.904 1.073 3.7 1.15 7.601 1.39 11.464 1.632 1.181.07 2.487.1 3.396-.645.564-.548.983-1.226 1.22-1.975l4.29-10.5c-.32 3.706-.416 7.428-.287 11.146-.062.797.173 1.589.66 2.222.625.482 1.406.714 2.192.653 5.955.224 11.916-.208 17.775-1.29 2.27-8.37 2.332-17.223 1.205-25.819-.443-3.35-1.104-6.761-2.884-9.637-.435-.786-1.053-1.455-1.803-1.95-1.122-.539-2.365-.772-3.606-.677-9-.093-18.14-.303-27.085.972-2.79.396-4.252 1.266-5.223 3.994-1.4 4.3-2.376 8.724-2.915 13.213-.713 4.967-1.03 9.983-.948 15z" transform="translate(-47 -3342) translate(47 3342)"/>
                <path fill="url(#if0rj45rsc)" d="M217.36 193.43l-1.399.241c-5.409.904-10.895 1.256-16.376 1.05-.786.06-1.567-.172-2.191-.654-.488-.633-.723-1.425-.66-2.222-.121-3.458-.044-6.92.232-10.368v-.265c0-.085 0-.342.04-.513-1.43 3.49-2.853 6.995-4.283 10.485-.238.749-.657 1.427-1.22 1.974-.91.777-2.215.715-3.397.645h-.536c-3.684-.233-7.391-.505-10.88-1.6-.727-.163-1.39-.537-1.905-1.073-.497-.767-.724-1.678-.645-2.589-.085-5.03.232-10.059.948-15.038.538-4.467 1.509-8.872 2.899-13.15.972-2.729 2.433-3.6 5.223-3.995 8.945-1.275 18.085-1.065 27.085-.972 1.123-.065 2.246.11 3.296.513.107.046.211.101.31.163.75.496 1.369 1.165 1.804 1.951 1.78 2.876 2.44 6.288 2.883 9.637 1.12 8.557 1.042 17.41-1.228 25.78z" transform="translate(-47 -3342) translate(47 3342)"/>
                <path fill="url(#58a6r1f9ld)" d="M217.36 193.43l-1.399.241c-.333-.172-.657-.362-.971-.567-.77-.425-1.418-1.04-1.881-1.788-.34-.757-.504-1.58-.482-2.41-.257-6.932 1.065-13.989-.342-20.758-.505-2.44-1.516-4.664-2.238-6.995-.661-2.153.816-3.435 2.549-4.663.306-.228.63-.428.971-.599.108.047.212.101.311.163.75.496 1.368 1.165 1.803 1.951 1.78 2.876 2.44 6.288 2.884 9.637 1.142 8.565 1.065 17.418-1.205 25.788z" transform="translate(-47 -3342) translate(47 3342)"/>
                <path fill="url(#oblz42xkme)" d="M197.013 180.715c-1.43 3.49-2.852 6.995-4.282 10.484-.238.75-.657 1.427-1.22 1.975-.91.777-2.216.715-3.397.645h-.536c-.202-.108-.392-.236-.568-.381-1.35-1.142-1.83-3.013-1.197-4.663.38-.775.862-1.496 1.43-2.145 3.39-4.345 5.239-9.653 7.042-14.86.97 1.122 1.709 2.424 2.176 3.831.5 1.655.688 3.39.552 5.114z" transform="translate(-47 -3342) translate(47 3342)"/>
                <path fill="#F3BD8F" d="M195.264 80.3c-.036 1.403-.59 2.743-1.554 3.762-1.43 1.29-3.599 1.213-5.394 1.935-.226.075-.431.203-.598.373-.133.157-.227.344-.272.545-.23.936-.157 1.921.21 2.813 1.11 2.702 3.357 4.776 6.14 5.666 2.763.865 5.691 1.07 8.549.598.948-.055 1.871-.32 2.704-.777.883-.673 1.586-1.554 2.044-2.565.556-.922.928-1.944 1.096-3.008.156-1.089-.275-2.18-1.135-2.867-.396-.241-.819-.437-1.259-.583-.691-.266-1.355-.6-1.982-.995-.642-.33-1.143-.882-1.406-1.555-.109-.567-.085-1.152.07-1.71.354-1.89.354-3.83 0-5.72-.085-.56-.258-1.103-.513-1.608-.486-.872-1.346-1.47-2.332-1.622-.986-.152-1.987.16-2.712.844-1.835 1.671-1.438 4.314-1.656 6.475z" transform="translate(-47 -3342) translate(47 3342)"/>
                <path fill="#F3BD8F" d="M186.66 70.251c-.105 1.289.003 2.586.32 3.84.916 2.976 4.064 4.896 7.18 5.02 1.023.08 2.049-.115 2.97-.567.527-.3 1.013-.67 1.445-1.096 2.176-1.99 4.181-4.368 4.842-7.243.226-1.091.32-2.206.28-3.319.028-1.64-.257-3.27-.84-4.803-1.182-2.755-3.72-4.69-6.691-5.099-3.008-.38-5.83 1.143-8.029 3.032-1.103.948-.94 2.813-1.08 4.235-.194 1.982-.326 3.995-.396 6z" transform="translate(-47 -3342) translate(47 3342)"/>
                <path fill="#2E2E3F" d="M187.034 53.674c-.84 1.437-1.407 3.108-2.705 4.142-.536.42-1.166.723-1.663 1.181-1.323 1.396-1.41 3.555-.202 5.052 1.25 1.427 3.198 2.028 5.036 1.555 1.805-.504 3.349-1.68 4.313-3.288.646-1.01 1.22-2.238 2.332-2.611 1-.227 2.047.035 2.821.707.816.59 1.5 1.368 2.332 1.896.496.255.972.549 1.422.879 1.337 1.158 1.135 3.248.824 4.99.56.17.668-.832 1.158-1.151.49-.319 1.057.148 1.143.668.028.527-.123 1.047-.428 1.477-1.275 2.23-2.782 4.422-3.21 6.948-.086.337-.07.691.047 1.018.257.39.65.667 1.104.778.777.336 1.616.508 2.463.505.86-.014 1.66-.439 2.153-1.143.24-.45.386-.945.428-1.453.105-1.686.334-3.361.683-5.013.94-3.249 3.731-6.078 3.32-9.428-.303-1.514-.937-2.942-1.858-4.18-.538-.942-1.197-1.81-1.959-2.581-.75-.642-1.574-1.19-2.456-1.632-1.82-1.086-3.812-1.85-5.891-2.262-2.464-.373-4.663.427-7.073.544-1.896.086-3.077.544-4.134 2.402z" transform="translate(-47 -3342) translate(47 3342)"/>
                <path fill="#FE5C36" d="M215.223 158.681c-1.393.969-2.987 1.61-4.663 1.873-8.938 1.982-18.202 1.966-27.133-.046-1.865-.428-3.94-1.112-4.748-2.853-.362-.955-.498-1.982-.397-3l.638-28.826c.24-10.92.482-21.878 2.083-32.681.471-2.233 1.357-4.358 2.611-6.265 1.041-1.422 5.76-.66 9.7-3.21 1.08-.699-1.267 2.915 2.261 4.407 3.66 1.555 7.772-5.728 9.995-2.805 1.251 1.632 5.23.42 6.49 2.044 1.01 1.305 1.632 4.064 2.028 7.39.84 7.066.63 16.656.777 20.146.66 12.21-.365 27.785 3.669 37.865.925 2.192-1.493 4.524-3.311 5.961z" transform="translate(-47 -3342) translate(47 3342)"/>
                <path fill="url(#40cp4cxhkf)" d="M215.223 158.681c-1.393.969-2.987 1.61-4.663 1.873-2.232.495-4.49.866-6.762 1.112l-.637-.086c1.663-5.44 1.74-11.16 1.694-16.818 0-3.11-.093-6.257-.156-9.381-.038-1.974-.108-4.05-1.126-5.736-1.019-1.686-3.335-2.759-5.029-1.74 2.915-1.757 5.3-9.187 6.497-12.234 1.722-4.414 2.927-9.012 3.591-13.702.45-3.218.28-8.876 5.207-7.352l.272.093c.84 7.065.63 16.655.778 20.145.66 12.21-.366 27.785 3.668 37.865.902 2.192-1.516 4.524-3.334 5.961z" transform="translate(-47 -3342) translate(47 3342)"/>
                <path fill="#2E2E3F" d="M187.376 246.078c.28.024.542.154.73.365.119.24.165.51.132.777 0 1.555.987 2.961.933 4.5-.039 1.376-.894 2.666-.777 4.042 0 .272.07.59-.125.777-.126.104-.28.169-.443.186-3.901.747-7.82 1.397-11.759 1.951-.726.193-1.499.11-2.168-.233-.303-.231-.54-.536-.692-.886-1.065-2.168-.116-4.826 1.33-6.762 3.536-4.764 6.947-5.906 12.839-4.717zM236.487 245.472c-.274 1.239-.98 2.34-1.99 3.108-2.502 2.312-5.363 4.202-8.471 5.596-.626.351-1.345.503-2.06.435-1.114-.322-1.875-1.35-1.857-2.51.038-1.128.33-2.233.855-3.233 1.5-3.466 2.541-8.55 6.544-9.925 3.497-1.174 7.352 3.078 6.979 6.529z" transform="translate(-47 -3342) translate(47 3342)"/>
                <path fill="url(#4ns5kcp1pg)" d="M187.376 246.078c.28.024.542.154.73.365.119.24.165.51.132.777 0 1.555.987 2.961.933 4.5-.039 1.376-.894 2.666-.777 4.042 0 .272.07.59-.125.777-.126.104-.28.169-.443.186-3.901.747-7.82 1.397-11.759 1.951-.726.193-1.499.11-2.168-.233-.303-.231-.54-.536-.692-.886-1.065-2.168-.116-4.826 1.33-6.762 3.536-4.764 6.947-5.906 12.839-4.717z" transform="translate(-47 -3342) translate(47 3342)"/>
                <path fill="url(#c51mix8zbh)" d="M234.497 248.596c-2.502 2.311-5.363 4.201-8.471 5.596-.626.351-1.345.503-2.06.435" transform="translate(-47 -3342) translate(47 3342)"/>
                <path fill="#FE5C36" d="M207.598 115.275c.135.974.031 1.966-.303 2.89-.56 1.283-1.857 2.06-3.108 2.752l-27.568 15.599c-1.29.73-2.673 1.554-3.225 2.937-1.213 3.11 2.588 5.9 5.891 6.148 3.459.257 6.863-.777 10.142-1.92 10.361-3.572 20.368-8.1 29.892-13.523 2.428-.902 3.866-3.41 3.42-5.961.026-7.61-.556-15.209-1.742-22.725-.645-4.112-1.554-8.41-4.329-11.526-4.103-4.664-11.595-4.804-12.24 2.028-.716 7.757 2.65 15.668 3.17 23.3z" transform="translate(-47 -3342) translate(47 3342)"/>
                <path fill="url(#457sea0yri)" d="M207.598 115.275c.135.974.031 1.966-.303 2.89-.56 1.283-1.857 2.06-3.108 2.752l-27.568 15.599c-1.29.73-2.673 1.554-3.225 2.937-1.213 3.11 2.588 5.9 5.891 6.148 3.459.257 6.863-.777 10.142-1.92 10.361-3.572 20.368-8.1 29.892-13.523 2.428-.902 3.866-3.41 3.42-5.961.026-7.61-.556-15.209-1.742-22.725-.645-4.112-1.554-8.41-4.329-11.526-4.103-4.664-11.595-4.804-12.24 2.028-.716 7.757 2.65 15.668 3.17 23.3z" transform="translate(-47 -3342) translate(47 3342)"/>
                <path fill="#F3BD8F" d="M169.85 139.104c-1.99-.006-3.906.744-5.363 2.098-1.455 1.417-1.86 3.596-1.01 5.44.295.603.809 1.07 1.438 1.306.554.153 1.142.134 1.686-.054 1.554-.474 2.837-1.679 4.36-2.332.369-.181.79-.228 1.19-.132.256.13.5.284.73.459.649.354 1.427.38 2.098.07.659-.32 1.214-.818 1.601-1.438.563-.78.838-1.73.778-2.69-.156-1.476-1.01-1.95-2.285-2.098-1.75-.186-3.428-.692-5.223-.63zM144.24 134.308c-.734.902-1.238 1.969-1.468 3.11-.122.539-.103 1.1.054 1.631.46 1.056 1.515 1.727 2.666 1.695 1.128-.048 2.223-.388 3.179-.988 1.776-1.023 3.473-2.18 5.075-3.458.332-.226.628-.501.878-.816.614-1.001.449-2.294-.396-3.109-2.627-2.635-8.013-.513-9.987 1.935z" transform="translate(-47 -3342) translate(47 3342)"/>
                <path fill="url(#e0gk7qy0xj)" d="M139.904 139.531l31.29.42-4.533 14.883h.127l-5.154 16.51-16.072 52.778h-.062v19.352H58.244v-3.886h57.948l-.001-15.467h-1.655l.011-.039H53.821L28.4 154.835h106.572l4.933-15.303zm1.71 84.59h-21.537v15.466l21.537.001v-15.467zm-34.901-13.088H95.247l2.627 8.922-.822.241h9.968l-.307-9.163zm-44.863 0h-8.68l3.364 9.164h8.658l-3.342-9.164zm56.397 0h-8.602l.307 9.163h5.697l2.598-9.163zm6.671 0h-1.879l-2.609 9.163h1.666l2.822-9.163zm19.927 0h-16.86l-2.822 9.163h17.073l2.609-9.163zm-69.971 0h-9.905l3.342 9.163h9.926l-3.363-9.163zm17.318 0h-13.16l3.36 9.164H94.89l-2.698-9.164zm-33.934-9.847h-8.703l2.539 6.917h8.687l-2.523-6.917zm31.034 0H75.423l2.535 6.917h13.371l-2.037-6.917zm38.66 0h-2.109l-1.97 6.917h1.948l2.131-6.917zm-56.692 0h-9.883l2.523 6.917h9.899l-2.539-6.917zm35.123 0H92.347l2.037 6.917h12.231l-.232-6.917zm14.657 0h-11.725l.232 6.917h9.531l1.962-6.917zm26.609 0h-16.631l-2.131 6.917h16.792l1.97-6.917zm-61.257-9.847H71.814l2.535 6.917h14.08l-2.037-6.917zm44.593 0h-2.338l-1.97 6.917h2.177l2.131-6.917zm-63.339 0h-9.861l2.523 6.917h9.877l-2.539-6.917zm38.407 0H89.447l2.037 6.917h14.8l-.231-6.917zm-51.387 0h-8.725l2.539 6.917h8.709l-2.523-6.917zm69.166 0h-14.847l.232 6.917h12.654l1.961-6.917zm26.621 0h-16.402l-2.131 6.917h16.563l1.97-6.917zm-86.421-9.847h-9.839l2.523 6.917h9.855l-2.539-6.917zm41.69 0H86.547l2.037 6.917h17.37l-.232-6.917zm20.903 0h-17.97l.232 6.917h15.776l1.962-6.917zm-43.133 0H68.205l2.535 6.917h14.789l-2.037-6.917zm69.765 0h-16.173l-2.131 6.917h16.334l1.97-6.917zm-19.239 0h-2.567l-1.97 6.917h2.406l2.131-6.917zm-82.943 0h-8.748l2.539 6.917h8.732l-2.523-6.917zm-3.592-9.848h-8.771l2.539 6.918h8.755l-2.523-6.918zm33.109 0H64.595l2.536 6.918h15.498l-2.037-6.918zm56.459 0h-2.796l-1.97 6.918h2.635l2.131-6.918zm-76.634 0h-9.816l2.523 6.918h9.832l-2.539-6.918zm44.975 0H83.647l2.037 6.918h19.94l-.232-6.918zm24.16 0h-21.227l.232 6.918h18.899l.977-3.443 1.119-3.475zm26.509 0h-15.944l-2.131 6.918h16.105l1.97-6.918zm-113.298-12.94h-8.8l3.674 10.01h8.777l-3.651-10.01zm34.018 0H59.852l3.669 10.01h16.208l-2.948-10.01zm64.256 0h-3.098l-2.85 10.01h2.865l3.083-10.01zm-85.369 0h-9.787l3.651 10.01h9.81l-3.674-10.01zm49.291 0H79.836l2.948 10.01h22.51l-.335-10.01zm28.764 0h-25.832l.335 10.01h22.271l3.226-10.01zm26.023 0h-15.643l-3.083 10.01h15.875l2.851-10.01zm-16.997-15.248l-3.685 11.378h23.563l3.376-11.067-23.254-.311z" transform="translate(-47 -3342) translate(47 3342)"/>
                <path fill="#2E2E3F" d="M132.972 253.127c-3.645 0-6.599-2.954-6.599-6.599 0-3.644 2.954-6.598 6.599-6.598 3.644 0 6.598 2.954 6.598 6.598 0 3.645-2.954 6.599-6.598 6.599zm0-9.326c-1.499 0-2.713 1.214-2.713 2.712 0 1.498 1.214 2.712 2.713 2.712 1.498 0 2.712-1.214 2.712-2.712-.009-1.492-1.22-2.697-2.712-2.697v-.015zM85.834 253.127c-2.432-.01-4.662-1.357-5.8-3.507-1.138-2.15-1-4.75.36-6.768 1.755-2.617 5.117-3.627 8.024-2.411 2.908 1.215 4.55 4.317 3.92 7.405-.628 3.087-3.353 5.3-6.504 5.281zm-2.246-8.106c-.613.91-.616 2.1-.009 3.014.607.915 1.705 1.373 2.782 1.162 1.077-.212 1.92-1.051 2.137-2.127.216-1.076-.237-2.176-1.148-2.788-1.244-.829-2.924-.5-3.762.739z" transform="translate(-47 -3342) translate(47 3342)"/>
            </g>
        </g>
    </g>
</svg>
